<svg xmlns="http://www.w3.org/2000/svg" xmlns:xlink="http://www.w3.org/1999/xlink"><symbol id="approve.svg" viewBox="0 0 12 8"><g fill="none">
<path d="M1 2.5L5.28571 7L11 1" stroke="#101A56"/>
</g></symbol><symbol id="boat" viewBox="0 0 44 32"><g fill="none">
<path d="M41.4386 25.7195L1.64777 17.2126C1.34201 17.1472 1.13593 17.7761 1.29431 18.277C3.83755 26.326 9.85818 32 16.8667 32H40.6041C40.7654 32 40.9069 31.8011 40.9546 31.5089L41.7481 26.6154C41.8155 26.1995 41.6667 25.7682 41.4386 25.7195Z" fill="#011C40"/>
<path d="M43.8843 11.771C43.7677 11.426 43.5778 11.1964 43.3644 11.1421L32.3643 8.35935C31.9676 8.26054 31.5943 8.79339 31.5401 9.55451C31.4859 10.3156 31.7689 11.0169 32.17 11.1183L33.4153 11.4329C33.5971 11.4788 33.7335 11.7738 33.7335 12.1216V14.2727C33.7335 14.6859 33.5443 15.0087 33.328 14.9642L30.3947 14.3673C30.2084 14.3311 30.0669 14.0319 30.0669 13.6771V7.58714C30.0669 7.44936 30.0881 7.31582 30.1285 7.20168L31.4103 3.55359C31.557 3.13618 31.5739 2.60186 31.4551 2.15527C31.3356 1.70721 31.0987 1.41502 30.8347 1.39138L15.4347 6.54269e-05C15.1875 -0.00417389 14.9478 0.197683 14.8033 0.581667C14.8033 0.581667 11.8729 8.39554 11.2305 10.1152C11.1535 10.3212 11.0244 10.4311 10.8924 10.4032L0.811081 8.35527C0.602854 8.31353 0.397462 8.44022 0.242774 8.70306C0.0887737 8.96752 0 9.34319 0 9.73826C0 11.0782 0.0916956 12.3916 0.264774 13.6662C0.302931 13.9473 0.432009 14.1517 0.583775 14.1851L42.015 23.0425C42.1902 23.08 42.3545 22.8756 42.4066 22.5555L43.9679 12.93C44.0309 12.5391 44.0002 12.1147 43.8843 11.771ZM21.1626 4.06427L20.5906 11.6639C20.5628 12.0326 20.3904 12.2956 20.1946 12.258C18.7639 11.984 13.3885 10.9113 13.3885 10.9113C13.1098 10.8542 12.9661 10.2489 13.1289 9.8149L15.6479 3.12379C15.7205 2.93172 15.8393 2.82182 15.964 2.83307L20.8172 3.27135C21.0328 3.29075 21.1934 3.65794 21.1626 4.06427ZM29.1127 5.0786L28.6617 6.35871C28.6214 6.47285 28.6001 6.60769 28.6001 6.74547V13.2306C28.6001 13.6438 28.4109 13.9667 28.1946 13.9221L22.3748 12.7395C22.1687 12.6978 22.0213 12.3388 22.0506 11.9492L22.6438 4.06997C22.6702 3.71517 22.8352 3.45641 23.0245 3.47304L28.8252 3.99758C29.1098 4.02252 29.2711 4.62777 29.1127 5.0786ZM38.1334 15.1674C38.1334 15.5805 37.9442 15.9034 37.7279 15.8589C37.7279 15.8589 36.2055 15.5332 35.5235 15.3803C35.3387 15.34 35.2001 15.0421 35.2001 14.6901V12.6782C35.2001 12.2581 35.3952 11.9324 35.6152 11.988L37.8152 12.5445C37.9971 12.5918 38.1334 12.8868 38.1334 13.2347V15.1674ZM42.1837 14.4689L41.9116 16.144C41.8603 16.4613 41.6968 16.6658 41.5222 16.6311L39.9272 16.3069C39.7417 16.2694 39.6001 15.9702 39.6001 15.6154V13.7927C39.6001 13.3725 39.7952 13.0469 40.0152 13.1025L41.8815 13.5742C42.1059 13.6313 42.2504 14.0571 42.1837 14.4689Z" fill="#011C40"/>
</g></symbol><symbol id="icon-close" viewBox="0 0 20 20"><g fill="none"><path d="M.293 18.291a1 1 0 101.414 1.414L10 11.413l8.292 8.292a1 1 0 101.414-1.414l-8.292-8.292 8.292-8.292A1 1 0 1018.291.293L9.999 8.585 1.707.293A1 1 0 10.293 1.707L8.585 10 .293 18.291z"/></g></symbol><symbol id="logo-desktop" viewBox="0 0 70 38"><g fill="none">
<path fill-rule="evenodd" clip-rule="evenodd" d="M0.903517 31.125L14.6726 12.5429L18.4395 14.556L27.4026 0L32.9879 6.65881L35.0665 4.95532L43.1199 15.1755L48.8355 8.36191L64.8126 31.125L49.42 11.7689L47.0817 19.8984L49.225 26.3249L35.456 7.35558L35.3069 13.8279L43.1199 31.125L28.5064 4.33574L32.7282 18.8145L26.8181 4.72292L23.5706 14.0916L24.2198 7.97472L16.1013 30.0411L17.0753 20.75L13.6981 17.0338L0.903517 31.125Z" fill="#F9FBFD"/>
<path fill-rule="evenodd" clip-rule="evenodd" d="M69.4414 34.0314C47.641 16.428 13.7091 40.6289 0 31.2961C15.0723 44.5215 50.3019 22.1644 69.4414 34.0314Z" fill="#F9FBFD"/>
<path fill-rule="evenodd" clip-rule="evenodd" d="M70 35.4157C52.8956 24.5171 27.4568 39.6838 14.4189 36.1717C28.5467 43.0283 54.8482 27.8361 70 35.4157Z" fill="#F9FBFD"/>
</g></symbol><symbol id="logo-menu" viewBox="0 0 42 22"><g fill="none">
<path fill-rule="evenodd" clip-rule="evenodd" d="M0.54211 18.0197L8.80358 7.26166L11.0637 8.42713L16.4415 0L19.7928 3.8551L21.0399 2.86887L25.872 8.78584L29.3013 4.84111L38.8875 18.0197L29.652 6.81358L28.249 11.5202L29.535 15.2407L21.2736 4.25849L21.1842 8.00563L25.872 18.0197L17.1038 2.51017L19.6369 10.8926L16.0909 2.73432L14.1424 8.15829L14.5319 4.61695L9.66076 17.3922L10.2452 12.0132L8.21887 9.86169L0.54211 18.0197Z" fill="#011C40"/>
<path fill-rule="evenodd" clip-rule="evenodd" d="M41.6649 19.7024C28.5846 9.51096 8.22544 23.522 0 18.1188C9.04339 25.7756 30.1812 12.832 41.6649 19.7024Z" fill="#011C40"/>
<path fill-rule="evenodd" clip-rule="evenodd" d="M42 20.5038C31.7374 14.1941 16.4741 22.9749 8.65134 20.9415C17.128 24.9111 32.9089 16.1156 42 20.5038Z" fill="#011C40"/>
</g></symbol><symbol id="logo-mobile" viewBox="0 0 42 22"><g fill="none">
<path fill-rule="evenodd" clip-rule="evenodd" d="M0.54211 18.0197L8.80358 7.26166L11.0637 8.42713L16.4415 0L19.7928 3.8551L21.0399 2.86887L25.872 8.78584L29.3013 4.84111L38.8875 18.0197L29.652 6.81358L28.249 11.5202L29.535 15.2407L21.2736 4.25849L21.1842 8.00563L25.872 18.0197L17.1038 2.51017L19.6369 10.8926L16.0909 2.73432L14.1424 8.15829L14.5319 4.61695L9.66076 17.3922L10.2452 12.0132L8.21887 9.86169L0.54211 18.0197Z" fill="#F9FBFD"/>
<path fill-rule="evenodd" clip-rule="evenodd" d="M41.6649 19.7024C28.5846 9.51096 8.22544 23.522 0 18.1188C9.04339 25.7756 30.1812 12.832 41.6649 19.7024Z" fill="#F9FBFD"/>
<path fill-rule="evenodd" clip-rule="evenodd" d="M42 20.5038C31.7374 14.1941 16.4741 22.9749 8.65134 20.9415C17.128 24.9111 32.9089 16.1156 42 20.5038Z" fill="#F9FBFD"/>
</g></symbol><symbol id="logo-tablet" viewBox="0 0 38 20"><g fill="none">
<path fill-rule="evenodd" clip-rule="evenodd" d="M0.49048 16.3816L7.96515 6.60151L10.01 7.66103L14.8757 0L17.9077 3.50464L19.0361 2.60806L23.408 7.98712L26.5107 4.40101L35.184 16.3816L26.828 6.19417L25.5587 10.4729L26.7222 13.8552L19.2475 3.87136L19.1666 7.27784L23.408 16.3816L15.4749 2.28197L17.7668 9.90238L14.5584 2.48574L12.7955 7.41663L13.1479 4.19722L8.74069 15.8111L9.26943 10.9211L7.43612 8.96517L0.49048 16.3816Z" fill="#F9FBFD"/>
<path fill-rule="evenodd" clip-rule="evenodd" d="M37.6968 17.9112C25.8623 8.64633 7.44206 21.3836 0 16.4716C8.18212 23.4324 27.3068 11.6655 37.6968 17.9112Z" fill="#F9FBFD"/>
<path fill-rule="evenodd" clip-rule="evenodd" d="M38 18.6398C28.7148 12.9037 14.9051 20.8862 7.82741 19.0377C15.4968 22.6465 29.7747 14.6506 38 18.6398Z" fill="#F9FBFD"/>
</g></symbol><symbol id="mark" viewBox="0 0 18 22"><g fill="none">
<path d="M15.364 15.5563L9 22L2.636 15.5563C1.37734 14.2819 0.520187 12.6581 0.172928 10.8905C-0.17433 9.12277 0.00390685 7.29051 0.685099 5.62539C1.36629 3.96027 2.51984 2.53707 3.99988 1.53576C5.47992 0.534448 7.21998 0 9 0C10.78 0 12.5201 0.534448 14.0001 1.53576C15.4802 2.53707 16.6337 3.96027 17.3149 5.62539C17.9961 7.29051 18.1743 9.12277 17.8271 10.8905C17.4798 12.6581 16.6227 14.2819 15.364 15.5563ZM9 11.1377C9.53044 11.1377 10.0391 10.9243 10.4142 10.5445C10.7893 10.1648 11 9.64969 11 9.11262C11 8.57554 10.7893 8.06047 10.4142 7.6807C10.0391 7.30093 9.53044 7.08757 9 7.08757C8.46957 7.08757 7.96086 7.30093 7.58579 7.6807C7.21072 8.06047 7 8.57554 7 9.11262C7 9.64969 7.21072 10.1648 7.58579 10.5445C7.96086 10.9243 8.46957 11.1377 9 11.1377Z" fill="#011C40"/>
</g></symbol><symbol id="phone" viewBox="0 0 18 18"><g fill="none">
<path d="M18 13.42V16.956C18.0001 17.2092 17.9042 17.453 17.7316 17.6382C17.559 17.8234 17.3226 17.9363 17.07 17.954C16.633 17.984 16.276 18 16 18C7.163 18 0 10.837 0 2C0 1.724 0.015 1.367 0.046 0.93C0.0637224 0.677444 0.176581 0.441011 0.361804 0.268409C0.547026 0.0958068 0.790823 -0.000114433 1.044 2.56579e-07H4.58C4.70404 -0.000125334 4.8237 0.045859 4.91573 0.12902C5.00776 0.212182 5.0656 0.326583 5.078 0.45C5.101 0.68 5.122 0.863 5.142 1.002C5.34073 2.38892 5.748 3.73783 6.35 5.003C6.445 5.203 6.383 5.442 6.203 5.57L4.045 7.112C5.36445 10.1865 7.81455 12.6365 10.889 13.956L12.429 11.802C12.4919 11.714 12.5838 11.6509 12.6885 11.6237C12.7932 11.5964 12.9042 11.6068 13.002 11.653C14.267 12.2539 15.6156 12.6601 17.002 12.858C17.141 12.878 17.324 12.9 17.552 12.922C17.6752 12.9346 17.7894 12.9926 17.8724 13.0846C17.9553 13.1766 18.0012 13.2961 18.001 13.42H18Z" fill="#011C40"/>
</g></symbol><symbol id="ship" viewBox="0 0 27 32"><g fill="none">
<path d="M4.40549 16.3962L13.2165 9.93576C13.4162 9.8063 13.6711 9.8063 13.8708 9.93576L22.7254 16.3962V8.68818C22.7739 7.6312 21.9743 6.7343 20.9396 6.68484C20.9242 6.68407 20.9089 6.68356 20.8934 6.68322H6.23749C5.20189 6.70667 4.38094 7.58319 4.4039 8.6411C4.40423 8.6568 4.40473 8.67249 4.40549 8.68818V16.3962Z" fill="#011C40"/>
<path d="M15.7464 0H11.3845V5.34662H15.7464V0Z" fill="#011C40"/>
<path d="M24.2956 30.1638L27 21.03L23.2052 18.3122L22.9434 18.1785L14.0016 11.8072V30.6094H13.5217L12.6929 30.5649V11.8072L0 21.03L2.79163 30.1193L4.4039 31.9904C4.4039 31.9904 5.7624 31.9904 7.15817 31.9904C7.15817 31.9904 12.2467 31.997 13.5218 31.9904C14.8198 32.012 17.1251 31.9904 17.1251 31.9904H22.8127L24.2956 30.1638Z" fill="#011C40"/>
</g></symbol><symbol id="toggle" viewBox="0 0 38 32"><g fill="none">
<path d="M28.7534 3.37533L26.4398 0L16.0732 15.1353L18.3868 18.5106L28.7534 3.37533ZM35.6945 0L18.3787 25.2494L11.5602 15.3023L9.24656 18.6776L18.3787 32L38 3.37533L35.6945 0ZM0 18.6776L9.1321 32L11.4458 28.6247L2.31368 15.3023L0 18.6776Z" fill="#011C40"/>
</g></symbol></svg>